<?xml version="1.0" encoding="UTF-8" standalone="no"?>
<!-- Uploaded to: SVG Repo, www.svgrepo.com, Generator: SVG Repo Mixer Tools -->

<svg
   fill="#000000"
   height="800px"
   width="800px"
   version="1.1"
   id="Capa_1"
   viewBox="0 0 29.107 29.107"
   xml:space="preserve"
   sodipodi:docname="shikimori.svg"
   inkscape:version="1.3.2 (091e20e, 2023-11-25, custom)"
   xmlns:inkscape="http://www.inkscape.org/namespaces/inkscape"
   xmlns:sodipodi="http://sodipodi.sourceforge.net/DTD/sodipodi-0.dtd"
   xmlns="http://www.w3.org/2000/svg"
   xmlns:svg="http://www.w3.org/2000/svg"><defs
   id="defs2" /><sodipodi:namedview
   id="namedview2"
   pagecolor="#ffffff"
   bordercolor="#000000"
   borderopacity="0.25"
   inkscape:showpageshadow="2"
   inkscape:pageopacity="0.0"
   inkscape:pagecheckerboard="0"
   inkscape:deskcolor="#d1d1d1"
   inkscape:zoom="0.72566833"
   inkscape:cx="268.02878"
   inkscape:cy="398.94258"
   inkscape:window-width="1920"
   inkscape:window-height="1017"
   inkscape:window-x="-8"
   inkscape:window-y="-8"
   inkscape:window-maximized="1"
   inkscape:current-layer="Capa_1" />
<g
   id="g2">
	<g
   id="c147_full_moon">
		<g
   id="g1">
			<path
   id="path1"
   d="M 14.553997 0 C 6.5610138 0 -4.1363493e-15 6.5620234 0 14.552008 C 0 22.547992 6.5610138 29.107 14.553997 29.107 C 22.549981 29.107 29.107 22.547992 29.107 14.552008 C 29.106 6.5620234 22.549981 -5.5151325e-15 14.553997 0 z M 12.802248 5.2512695 C 13.249658 5.2518986 13.72463 5.2586197 14.223204 5.2720906 C 20.152184 5.2720906 21.66143 5.5954889 21.98481 6.9969078 C 22.200365 8.506095 21.553522 8.5061565 16.594756 7.6437853 C 13.468595 7.1047751 10.019029 6.3501725 8.8332212 5.9189681 C 7.8900028 5.5416643 9.670373 5.2468654 12.802248 5.2512695 z M 6.4537808 7.2770342 C 6.5768153 7.2878224 6.7242248 7.4078354 6.8926598 7.6436432 C 7.3238834 8.2904597 10.773399 9.2606587 14.438593 9.6918635 C 21.122201 10.446467 24.895189 12.38684 24.032817 14.866244 C 23.81728 15.513004 22.847068 15.944264 21.769066 15.728652 C 19.61306 15.29741 19.505292 17.561285 21.769066 20.687431 C 23.70944 23.490253 23.386052 24.460455 20.691055 23.490259 C 19.720821 23.166935 18.966238 21.657694 18.966238 20.364099 C 18.966238 17.237934 17.888219 14.435111 16.810216 14.435111 C 16.271224 14.435111 16.163433 16.052039 16.486813 18.100276 C 17.13363 22.412249 15.193251 24.137106 12.713847 21.442109 C 11.635825 20.364069 11.528057 19.825093 12.282642 20.256298 C 12.929421 20.687502 13.576255 20.579711 13.576255 19.932894 C 13.576255 19.393902 13.899681 18.208064 14.223062 17.237867 C 14.654341 15.944253 14.223074 15.51305 12.606117 15.51305 C 10.881335 15.51305 10.342365 16.159806 10.342365 18.63921 C 10.342365 20.363992 9.5877923 22.304398 8.7254202 23.058983 C 7.7552797 23.921412 7.1084041 24.02917 7.1084041 23.274585 C 7.1084041 22.627806 7.6474229 21.765418 8.1864148 21.442038 C 10.234558 20.148499 9.3721777 16.591061 7.1084041 16.591061 C 5.9225956 16.591061 4.9524537 15.944232 4.9524537 15.189647 C 4.9524537 14.435062 6.8928262 13.788314 10.126834 13.572702 C 12.929618 13.464915 16.702555 12.818081 18.427375 12.279089 C 21.23014 11.416717 20.798911 11.308912 15.193342 11.416681 C 6.1381166 11.524505 6.0303934 11.524547 6.0303934 8.7217249 L 6.0302513 8.7216539 C 6.0302513 7.7582032 6.183105 7.2533002 6.4537808 7.2770342 z " />
		</g>
	</g>
	<g
   id="Capa_1_14_">
	</g>
</g>
<g
   id="g3"
   transform="matrix(0.01875213,0,0,0.01875213,4.9524204,4.9524484)"
   style="fill:#ffffff"><g
     id="icomoon-ignore"
     style="fill:#ffffff" /></g></svg>
