<svg width="46" height="46" viewBox="0 0 46 46" fill="none" xmlns="http://www.w3.org/2000/svg">
<path d="M23 0C10.318 0 0 10.318 0 23C0 35.682 10.318 46 23 46C35.682 46 46 35.683 46 23C46 10.317 35.682 0 23 0ZM32.7352 33.338C32.4463 33.7718 31.9705 34.0057 31.4857 34.0057C31.1998 34.0057 30.9109 33.9247 30.655 33.7538C28.183 32.1054 23.9906 31.0059 20.492 31.0069C16.7794 31.0089 13.9965 31.9205 13.9685 31.9295C13.1848 32.1954 12.3342 31.7676 12.0723 30.9819C11.8104 30.1962 12.2352 29.3465 13.0209 29.0856C13.1529 29.0416 16.2986 28.011 20.492 28.009C23.9906 28.007 28.8567 28.9507 32.3194 31.2588C33.0091 31.7186 33.195 32.6492 32.7352 33.338ZM35.726 27.2004C35.4011 27.7222 34.8404 28.009 34.2676 28.009C33.9577 28.009 33.6438 27.9261 33.3619 27.7491C28.8797 24.9562 24.2735 24.3655 20.3051 24.4005C15.8248 24.4404 12.2422 25.2951 12.1812 25.3131C11.2746 25.571 10.321 25.0412 10.0621 24.1306C9.80316 23.2179 10.334 22.2693 11.2456 22.0114C11.5225 21.9324 15.0981 21.0528 19.9932 21.0118C24.4564 20.9748 30.0183 21.6215 35.1782 24.8363C35.9809 25.3361 36.2278 26.3957 35.726 27.2004ZM38.7098 20.0232C38.337 20.6569 37.6693 21.0098 36.9835 21.0098C36.6397 21.0098 36.2918 20.9208 35.9729 20.7349C30.749 17.6681 24.3975 17.0173 19.9892 17.0113C19.9682 17.0113 19.9472 17.0113 19.9262 17.0113C14.5953 17.0113 10.4899 17.949 10.4489 17.959C9.37133 18.2059 8.29875 17.5401 8.04885 16.4646C7.79895 15.39 8.46569 14.3164 9.54027 14.0655C9.72519 14.0225 14.1115 13.0129 19.9262 13.0129C19.9492 13.0129 19.9722 13.0129 19.9952 13.0129C24.8983 13.0199 32.0015 13.7656 37.9981 17.2862C38.9498 17.846 39.2686 19.0715 38.7098 20.0232Z" fill="black"/>
</svg>
