<svg width="46" height="46" viewBox="0 0 46 46" fill="none" xmlns="http://www.w3.org/2000/svg">
<path d="M22.9427 0C10.9843 0 1.15287 9.07536 0 20.7008L11.7293 26.6897C12.9136 25.6965 14.4534 25.0909 16.1303 25.0909H16.1835C16.5923 24.4636 17.0624 23.6786 17.555 22.8632C18.5821 21.18 19.7351 19.2772 20.867 17.8136C21.1186 13.1404 25.0074 9.40909 29.7551 9.40909C34.6705 9.40909 38.6636 13.3923 38.6636 18.2955C38.6636 23.0314 34.923 26.9105 30.2382 27.1614C28.7709 28.2905 26.8738 29.4409 25.176 30.455C24.3585 30.9568 23.5715 31.4255 22.9427 31.8333V31.8864C22.9427 35.6395 19.8928 38.6818 16.1303 38.6818C12.3678 38.6818 9.31791 35.6395 9.31791 31.8864C9.31791 31.7086 9.3279 31.5414 9.33838 31.3636L0.178088 26.6795C1.94931 37.6359 11.4664 46 22.9427 46C35.6766 46 46 35.7023 46 23C46 10.2977 35.6766 0 22.9427 0ZM29.7551 11.5C26.003 11.5 22.9427 14.5527 22.9427 18.2955C22.9427 22.0382 26.003 25.0909 29.7551 25.0909C33.5071 25.0909 36.5675 22.0382 36.5675 18.2955C36.5675 14.5527 33.5071 11.5 29.7551 11.5ZM29.7551 13.5909C32.3647 13.5909 34.4713 15.6923 34.4713 18.2955C34.4713 20.8986 32.3647 23 29.7551 23C27.1454 23 25.0388 20.8986 25.0388 18.2955C25.0388 15.6923 27.1454 13.5909 29.7551 13.5909ZM16.1303 27.1818C15.3023 27.1818 14.5166 27.3912 13.8459 27.7781L17.3257 29.5545C18.6149 30.2131 19.1178 31.7929 18.468 33.0788C17.9963 33.9779 17.084 34.5 16.1303 34.5C15.7216 34.5 15.3226 34.4064 14.9349 34.2182L11.4447 32.4295C11.7172 34.7713 13.7093 36.5909 16.1303 36.5909C18.74 36.5909 20.8466 34.4895 20.8466 31.8864C20.8466 29.2832 18.74 27.1818 16.1303 27.1818Z" fill="black"/>
</svg>
